<?xml version="1.0" standalone="no"?>
<!DOCTYPE svg PUBLIC "-//W3C//DTD SVG 20010904//EN"
 "http://www.w3.org/TR/2001/REC-SVG-20010904/DTD/svg10.dtd">
<svg version="1.0" xmlns="http://www.w3.org/2000/svg"
 width="700.000000pt" height="700.000000pt" viewBox="0 0 700.000000 700.000000"
 preserveAspectRatio="xMidYMid meet">
<metadata>
Created by potrace 1.14, written by Peter Selinger 2001-2017
</metadata>
<g transform="translate(0.000000,700.000000) scale(0.100000,-0.100000)"
fill="#000000" stroke="none">
<path d="M3410 5549 c-769 -46 -1251 -408 -1346 -1012 -25 -155 -15 -429 19
-561 48 -182 147 -337 316 -498 194 -185 397 -291 864 -453 575 -200 798 -327
854 -488 26 -76 23 -204 -7 -282 -47 -121 -182 -218 -365 -263 -124 -31 -233
-42 -416 -42 -278 0 -530 42 -812 134 -89 29 -186 65 -216 80 -29 15 -57 24
-62 19 -10 -10 -289 -723 -289 -739 0 -14 138 -74 237 -103 228 -67 447 -109
773 -147 181 -22 597 -25 750 -6 608 76 989 301 1193 707 88 173 127 363 127
613 0 334 -78 529 -302 753 -185 187 -422 320 -828 468 -397 144 -451 166
-586 235 -227 115 -296 172 -346 282 -18 39 -22 68 -23 139 0 79 4 97 28 147
50 101 158 175 322 220 70 18 107 21 285 22 371 0 709 -67 997 -199 63 -29 72
-31 78 -17 29 74 275 725 275 729 0 12 -198 95 -301 127 -132 39 -368 88 -544
111 -102 13 -479 37 -525 33 -8 0 -76 -5 -150 -9z"/>
</g>
</svg>
