<svg width="76" height="27" viewBox="0 0 76 27" fill="none" xmlns="http://www.w3.org/2000/svg">
<path d="M8.74198 0.483326C10.0924 0.483326 11.1338 0.636406 11.8662 0.942565C12.5986 1.22517 13.2281 1.53133 13.7545 1.86104C14.0292 2.0259 14.2466 2.15543 14.4068 2.24963C14.5899 2.32028 14.7616 2.35561 14.9218 2.35561C15.1507 2.35561 15.3109 2.22608 15.4025 1.96702C15.5169 1.70796 15.6084 1.31938 15.6771 0.801261H16.4668C16.4439 1.24872 16.4095 1.79039 16.3638 2.42626C16.3409 3.03858 16.318 3.85108 16.2951 4.86376C16.2951 5.87644 16.2951 7.20706 16.2951 8.85561H15.5054C15.4139 7.63097 15.1392 6.44166 14.6815 5.28767C14.2237 4.13369 13.5714 3.19166 12.7245 2.46159C11.9006 1.70796 10.882 1.33115 9.66895 1.33115C8.57032 1.33115 7.66624 1.64909 6.9567 2.28496C6.24717 2.92083 5.8924 3.80398 5.8924 4.93441C5.8924 5.87644 6.12128 6.68894 6.57905 7.37191C7.03681 8.03133 7.70057 8.67898 8.57032 9.31485C9.46296 9.95072 10.5387 10.7161 11.7976 11.611C12.8962 12.3411 13.8804 13.0712 14.7501 13.8013C15.6199 14.5313 16.318 15.3556 16.8444 16.2741C17.3708 17.1926 17.6341 18.2877 17.6341 19.5594C17.6341 21.1138 17.2335 22.3973 16.4324 23.41C15.6542 24.4226 14.6243 25.188 13.3425 25.7061C12.0608 26.2007 10.6531 26.448 9.11964 26.448C7.70057 26.448 6.5676 26.3067 5.72074 26.0241C4.87387 25.7415 4.16434 25.4471 3.59214 25.1409C3.08859 24.8112 2.6995 24.6464 2.42484 24.6464C2.19595 24.6464 2.02429 24.7759 1.90985 25.035C1.8183 25.294 1.73819 25.6826 1.66953 26.2007H0.879883C0.925659 25.6355 0.948547 24.9761 0.948547 24.2225C0.971436 23.4688 0.98288 22.4915 0.98288 21.2904C1.00577 20.0658 1.01721 18.5232 1.01721 16.6627H1.80686C1.89841 18.217 2.15018 19.6772 2.56217 21.0431C2.99704 22.3855 3.64936 23.4688 4.51911 24.2931C5.41175 25.1174 6.59049 25.5295 8.05534 25.5295C8.85642 25.5295 9.56596 25.3882 10.1839 25.1056C10.8248 24.7994 11.3398 24.352 11.7289 23.7632C12.118 23.1744 12.3125 22.4444 12.3125 21.573C12.3125 20.5839 12.0837 19.7243 11.6259 18.9942C11.191 18.2641 10.5845 17.5812 9.80628 16.9453C9.05097 16.3094 8.16978 15.6618 7.1627 15.0023C6.08695 14.2723 5.07987 13.5422 4.14145 12.8121C3.20304 12.0821 2.44773 11.246 1.87552 10.304C1.3262 9.36195 1.05154 8.24329 1.05154 6.948C1.05154 5.4643 1.40631 4.25144 2.11585 3.30941C2.84827 2.34383 3.79813 1.63731 4.96543 1.18985C6.15561 0.718833 7.41447 0.483326 8.74198 0.483326Z" fill="#212529"/>
<path d="M32.6711 0.447998C35.0972 0.447998 37.2144 0.954339 39.0225 1.96702C40.8536 2.9797 42.2727 4.43985 43.2797 6.34746C44.2868 8.23151 44.7904 10.5277 44.7904 13.236C44.7904 15.8737 44.2754 18.1817 43.2454 20.16C42.2155 22.1382 40.7735 23.6808 38.9195 24.7877C37.0885 25.8946 34.9942 26.448 32.6367 26.448C30.2106 26.448 28.082 25.9417 26.2509 24.929C24.4428 23.9163 23.0351 22.4562 22.028 20.5485C21.021 18.6409 20.5174 16.3447 20.5174 13.66C20.5174 11.0223 21.0324 8.7143 22.0624 6.73604C23.1152 4.75778 24.5458 3.21521 26.3539 2.10833C28.185 1.00144 30.2907 0.447998 32.6711 0.447998ZM32.5337 1.08387C31.252 1.08387 30.1305 1.61376 29.1692 2.67354C28.2308 3.73333 27.4983 5.19347 26.9719 7.05398C26.4684 8.91448 26.2166 11.0694 26.2166 13.5187C26.2166 16.015 26.5027 18.1935 27.0749 20.054C27.67 21.8909 28.4596 23.3158 29.4438 24.3284C30.4509 25.3176 31.561 25.8121 32.7741 25.8121C34.0558 25.8121 35.1659 25.2822 36.1043 24.2225C37.0656 23.1627 37.798 21.7025 38.3016 19.842C38.828 17.958 39.0912 15.8031 39.0912 13.3773C39.0912 10.8574 38.7937 8.67898 38.1986 6.84202C37.6264 5.00506 36.8367 3.59202 35.8296 2.60289C34.8454 1.59021 33.7468 1.08387 32.5337 1.08387Z" fill="#212529"/>
<path d="M58.0617 0.871912L66.4044 22.986C66.7249 23.8339 67.0796 24.4226 67.4687 24.7523C67.8807 25.0585 68.2469 25.2234 68.5674 25.2469V25.9534C67.8807 25.9063 67.0682 25.8828 66.1298 25.8828C65.2143 25.8592 64.2873 25.8475 63.3489 25.8475C62.296 25.8475 61.3004 25.8592 60.362 25.8828C59.4235 25.8828 58.6797 25.9063 58.1304 25.9534V25.2469C59.2977 25.1998 60.0301 24.9996 60.3276 24.6464C60.6481 24.2696 60.5794 23.4806 60.1216 22.2795L54.2851 5.85289L54.9031 4.93441L49.6846 18.9235C49.1811 20.2188 48.8721 21.2786 48.7576 22.1029C48.6661 22.9272 48.7233 23.563 48.9293 24.0105C49.1582 24.458 49.5129 24.7759 49.9936 24.9643C50.4971 25.1292 51.0922 25.2234 51.7789 25.2469V25.9534C51.0236 25.9063 50.3026 25.8828 49.6159 25.8828C48.9293 25.8592 48.2312 25.8475 47.5217 25.8475C47.0181 25.8475 46.5375 25.8592 46.0797 25.8828C45.6448 25.8828 45.2557 25.9063 44.9124 25.9534V25.2469C45.3931 25.1527 45.8852 24.8348 46.3887 24.2931C46.8922 23.7514 47.3843 22.833 47.865 21.5377L55.6928 0.871912C56.059 0.895462 56.4481 0.907238 56.8601 0.907238C57.2949 0.907238 57.6955 0.895462 58.0617 0.871912ZM60.4649 15.7795V16.486H50.2339L50.5772 15.7795H60.4649Z" fill="#212529"/>
<path d="M72.9616 21.0078C73.8543 21.0078 74.5638 21.2551 75.0902 21.7496C75.6167 22.2206 75.8799 22.8801 75.8799 23.7279C75.8799 24.5757 75.6167 25.2469 75.0902 25.7415C74.5638 26.2125 73.8543 26.448 72.9616 26.448C72.069 26.448 71.3595 26.2125 70.833 25.7415C70.3066 25.2469 70.0434 24.5757 70.0434 23.7279C70.0434 22.8801 70.3066 22.2206 70.833 21.7496C71.3595 21.2551 72.069 21.0078 72.9616 21.0078Z" fill="#55C1FF"/>
</svg>
